REM DIRINDEX 1\2,1\3,1\4,1\5
REM DIRNAME folder01,folder02,folder03,folder04,folder05
TITLE ""
FILE "1Q_j_2255-2268.mp3" MP3
  TRACK 01 AUDIO
    TITLE "3:cjc004_0464"
    INDEX 01 00:00:00
  TRACK 02 AUDIO
    TITLE "0:"
    INDEX 01 00:01:15
  TRACK 03 AUDIO
    TITLE "4:cjc004_0465"
    INDEX 01 00:01:48
  TRACK 04 AUDIO
    TITLE "0:"
    INDEX 01 00:02:67
  TRACK 05 AUDIO
    TITLE "5:cjc004_0466"
    INDEX 01 00:03:17
  TRACK 06 AUDIO
    TITLE "0:"
    INDEX 01 00:07:13
  TRACK 07 AUDIO
    TITLE "3:cjc004_0467"
    INDEX 01 00:07:72
  TRACK 08 AUDIO
    TITLE "0:"
    INDEX 01 00:09:14
  TRACK 09 AUDIO
    TITLE "4:cjc004_0468"
    INDEX 01 00:09:44
  TRACK 10 AUDIO
    TITLE "0:"
    INDEX 01 00:10:59
  TRACK 11 AUDIO
    TITLE "5:cjc004_0469"
    INDEX 01 00:11:11
  TRACK 12 AUDIO
    TITLE "0:"
    INDEX 01 00:14:56
  TRACK 13 AUDIO
    TITLE "3:cjc004_0470"
    INDEX 01 00:15:40
  TRACK 14 AUDIO
    TITLE "0:"
    INDEX 01 00:16:51
  TRACK 15 AUDIO
    TITLE "4:cjc004_0471"
    INDEX 01 00:17:06
  TRACK 16 AUDIO
    TITLE "0:"
    INDEX 01 00:18:19
  TRACK 17 AUDIO
    TITLE "5:cjc004_0472"
    INDEX 01 00:18:48
  TRACK 18 AUDIO
    TITLE "0:"
    INDEX 01 00:24:02
  TRACK 19 AUDIO
    TITLE "3:cjc004_0473"
    INDEX 01 00:24:55
  TRACK 20 AUDIO
    TITLE "0:"
    INDEX 01 00:25:70
  TRACK 21 AUDIO
    TITLE "4:cjc004_0474"
    INDEX 01 00:26:28
  TRACK 22 AUDIO
    TITLE "0:"
    INDEX 01 00:27:53
  TRACK 23 AUDIO
    TITLE "5:cjc004_0475"
    INDEX 01 00:28:06
  TRACK 24 AUDIO
    TITLE "0:"
    INDEX 01 00:31:37
  TRACK 25 AUDIO
    TITLE "3:cjc004_0476"
    INDEX 01 00:32:17
  TRACK 26 AUDIO
    TITLE "0:"
    INDEX 01 00:33:46
  TRACK 27 AUDIO
    TITLE "4:cjc004_0477"
    INDEX 01 00:34:00
  TRACK 28 AUDIO
    TITLE "0:"
    INDEX 01 00:35:04
  TRACK 29 AUDIO
    TITLE "5:cjc004_0478"
    INDEX 01 00:35:29
  TRACK 30 AUDIO
    TITLE "0:"
    INDEX 01 00:41:73
  TRACK 31 AUDIO
    TITLE "3:cjc004_0479"
    INDEX 01 00:42:53
  TRACK 32 AUDIO
    TITLE "0:"
    INDEX 01 00:43:70
  TRACK 33 AUDIO
    TITLE "4:cjc004_0480"
    INDEX 01 00:44:20
  TRACK 34 AUDIO
    TITLE "0:"
    INDEX 01 00:45:45
  TRACK 35 AUDIO
    TITLE "5:cjc004_0481"
    INDEX 01 00:45:73
  TRACK 36 AUDIO
    TITLE "0:"
    INDEX 01 00:49:41
  TRACK 37 AUDIO
    TITLE "3:cjc004_0482"
    INDEX 01 00:50:21
  TRACK 38 AUDIO
    TITLE "0:"
    INDEX 01 00:51:36
  TRACK 39 AUDIO
    TITLE "4:cjc004_0483"
    INDEX 01 00:51:69
  TRACK 40 AUDIO
    TITLE "0:"
    INDEX 01 00:53:19
  TRACK 41 AUDIO
    TITLE "5:cjc004_0484"
    INDEX 01 00:53:45
  TRACK 42 AUDIO
    TITLE "0:"
    INDEX 01 00:58:40
  TRACK 43 AUDIO
    TITLE "3:cjc004_0485"
    INDEX 01 00:59:18
  TRACK 44 AUDIO
    TITLE "0:"
    INDEX 01 01:00:51
  TRACK 45 AUDIO
    TITLE "4:cjc004_0486"
    INDEX 01 01:01:05
  TRACK 46 AUDIO
    TITLE "0:"
    INDEX 01 01:02:65
  TRACK 47 AUDIO
    TITLE "5:cjc004_0487"
    INDEX 01 01:03:16
  TRACK 48 AUDIO
    TITLE "0:"
    INDEX 01 01:06:71
  TRACK 49 AUDIO
    TITLE "3:cjc004_0488"
    INDEX 01 01:07:51
  TRACK 50 AUDIO
    TITLE "0:"
    INDEX 01 01:09:03
  TRACK 51 AUDIO
    TITLE "4:cjc004_0489"
    INDEX 01 01:09:30
  TRACK 52 AUDIO
    TITLE "0:"
    INDEX 01 01:10:53
  TRACK 53 AUDIO
    TITLE "5:cjc004_0490"
    INDEX 01 01:11:03
  TRACK 54 AUDIO
    TITLE "0:"
    INDEX 01 01:13:69
  TRACK 55 AUDIO
    TITLE "3:cjc004_0491"
    INDEX 01 01:14:49
  TRACK 56 AUDIO
    TITLE "0:"
    INDEX 01 01:16:07
  TRACK 57 AUDIO
    TITLE "4:cjc004_0492"
    INDEX 01 01:16:34
  TRACK 58 AUDIO
    TITLE "0:"
    INDEX 01 01:17:55
  TRACK 59 AUDIO
    TITLE "5:cjc004_0493"
    INDEX 01 01:18:02
  TRACK 60 AUDIO
    TITLE "0:"
    INDEX 01 01:21:45
  TRACK 61 AUDIO
    TITLE "3:cjc004_0494"
    INDEX 01 01:22:27
  TRACK 62 AUDIO
    TITLE "0:"
    INDEX 01 01:23:40
  TRACK 63 AUDIO
    TITLE "4:cjc004_0495"
    INDEX 01 01:23:67
  TRACK 64 AUDIO
    TITLE "0:"
    INDEX 01 01:25:41
  TRACK 65 AUDIO
    TITLE "5:cjc004_0496"
    INDEX 01 01:25:68
  TRACK 66 AUDIO
    TITLE "0:"
    INDEX 01 01:29:31
  TRACK 67 AUDIO
    TITLE "3:cjc004_0497"
    INDEX 01 01:30:13
  TRACK 68 AUDIO
    TITLE "0:"
    INDEX 01 01:31:34
  TRACK 69 AUDIO
    TITLE "4:cjc004_0498"
    INDEX 01 01:31:65
  TRACK 70 AUDIO
    TITLE "0:"
    INDEX 01 01:33:66
  TRACK 71 AUDIO
    TITLE "5:cjc004_0499"
    INDEX 01 01:34:14
  TRACK 72 AUDIO
    TITLE "0:"
    INDEX 01 01:38:42
  TRACK 73 AUDIO
    TITLE "3:cjc004_0500"
    INDEX 01 01:39:21
  TRACK 74 AUDIO
    TITLE "0:"
    INDEX 01 01:40:54
  TRACK 75 AUDIO
    TITLE "4:cjc004_0501"
    INDEX 01 01:41:10
  TRACK 76 AUDIO
    TITLE "0:"
    INDEX 01 01:42:39
  TRACK 77 AUDIO
    TITLE "5:cjc004_0502"
    INDEX 01 01:42:65
  TRACK 78 AUDIO
    TITLE "0:"
    INDEX 01 01:46:45
  TRACK 79 AUDIO
    TITLE "3:cjc004_0503"
    INDEX 01 01:47:21
  TRACK 80 AUDIO
    TITLE "0:"
    INDEX 01 01:48:40
  TRACK 81 AUDIO
    TITLE "4:cjc004_0504"
    INDEX 01 01:48:69
  TRACK 82 AUDIO
    TITLE "0:"
    INDEX 01 01:50:25
  TRACK 83 AUDIO
    TITLE "5:cjc004_0505"
    INDEX 01 01:50:47
  TRACK 84 AUDIO
    TITLE "0:"
    INDEX 01 01:55:15
